<?xml version="1.0" encoding="UTF-8"?>
<svg width="800" height="600" viewBox="0 0 800 600" fill="none" xmlns="http://www.w3.org/2000/svg">
  <!-- Background -->
  <rect width="800" height="600" fill="#F3F4F6"/>
  
  <!-- Package Box -->
  <g transform="translate(200, 100)">
    <!-- Box Body -->
    <rect x="0" y="0" width="400" height="300" rx="20" fill="#2563EB"/>
    
    <!-- Box Lid -->
    <rect x="50" y="-30" width="300" height="40" rx="10" fill="#1D4ED8"/>
    
    <!-- Box Details -->
    <rect x="100" y="50" width="200" height="20" rx="5" fill="#FFFFFF" opacity="0.2"/>
    <rect x="100" y="90" width="150" height="20" rx="5" fill="#FFFFFF" opacity="0.2"/>
    <rect x="100" y="130" width="180" height="20" rx="5" fill="#FFFFFF" opacity="0.2"/>
    
    <!-- Tracking Lines -->
    <path d="M50 200 L350 200" stroke="#FFFFFF" stroke-width="4" stroke-dasharray="10 10"/>
    <path d="M50 240 L350 240" stroke="#FFFFFF" stroke-width="4" stroke-dasharray="10 10"/>
    
    <!-- QR Code -->
    <rect x="150" y="260" width="100" height="100" fill="#FFFFFF"/>
    <rect x="170" y="280" width="20" height="20" fill="#2563EB"/>
    <rect x="210" y="280" width="20" height="20" fill="#2563EB"/>
    <rect x="170" y="320" width="20" height="20" fill="#2563EB"/>
    <rect x="210" y="320" width="20" height="20" fill="#2563EB"/>
  </g>
  
  <!-- Smart Elements -->
  <g transform="translate(600, 200)">
    <!-- Connection Lines -->
    <path d="M-200 0 L-100 0" stroke="#2563EB" stroke-width="4" stroke-dasharray="10 10"/>
    <path d="M-200 50 L-100 50" stroke="#2563EB" stroke-width="4" stroke-dasharray="10 10"/>
    <path d="M-200 100 L-100 100" stroke="#2563EB" stroke-width="4" stroke-dasharray="10 10"/>
    
    <!-- Smart Icons -->
    <circle cx="-150" cy="0" r="20" fill="#2563EB"/>
    <circle cx="-150" cy="50" r="20" fill="#2563EB"/>
    <circle cx="-150" cy="100" r="20" fill="#2563EB"/>
    
    <!-- Icon Details -->
    <path d="M-160 -10 L-140 -10 L-150 -20 Z" fill="#FFFFFF"/>
    <path d="M-160 40 L-140 40 L-150 30 Z" fill="#FFFFFF"/>
    <path d="M-160 90 L-140 90 L-150 80 Z" fill="#FFFFFF"/>
  </g>
</svg> 